# xmcd
#
# Track frame offsets:
#	152
#	13612
#	22415
#	33765
#	55150
#	69317
#	84780
#	94662
#	107982
#	118442
#	130412
#	141185
#	154892
#	164580
#	181217
#	198717
#	211265
#	225965
#	237072
#	250467
#
# Disc length: 3464 seconds
#
# Revision: 0
# Processed by: cddbd v1.5.2PL0 Copyright (c) Steve Scherf et al.
# Submitted via: EasyCDDAExtractor 10.0.2.1
#
DISCID=160d8614
DTITLE=Various Artist - The Ultimate Irish Pub Party - CD2
DYEAR=2000
DGENRE=Country
TTITLE0=Country Men - A mother's love's a blessing
TTITLE1=Aran Folk - Mursheen Durkin
TTITLE2=Gloria Hunninford - Connemara cradle song
TTITLE3=Seamus Donnelly - Old mud cabin
TTITLE4=Peter Tomelty - The Irish emigrant
TTITLE5=Connie Foley - The Galway shawl
TTITLE6=Seamus Donnelly - Forty shades on green
TTITLE7=Peter Tomelty - Love Derry on the banks of the Foyle
TTITLE8=Al Logan - Lovely leitrim
TTITLE9=Gloria Hunniford - Homes of Donegal
TTITLE10=Connie Foley - Boston burglar
TTITLE11=Seamus Donnelly - The old bog road
TTITLE12=Al logan - The green glens of Antrim
TTITLE13=Aran Folk - Carrickfergus
TTITLE14=Gloria Hunniford - Rose of Mooncoin
TTITLE15=Connie Foley - Three leafed Shamrock
TTITLE16=Peter Tomelty - Hills of Donegal
TTITLE17=Seamus Donnelly - Noreen Bawn
TTITLE18=Peter Tomelty - Enniskillen dragoons
TTITLE19=Al Logan - Rose of Aranmore
EXTD=
EXTT0=
EXTT1=
EXTT2=
EXTT3=
EXTT4=
EXTT5=
EXTT6=
EXTT7=
EXTT8=
EXTT9=
EXTT10=
EXTT11=
EXTT12=
EXTT13=
EXTT14=
EXTT15=
EXTT16=
EXTT17=
EXTT18=
EXTT19=
PLAYORDER=
